<?xml version="1.0" standalone="no"?>
<!DOCTYPE svg PUBLIC "-//W3C//DTD SVG 20010904//EN"
 "http://www.w3.org/TR/2001/REC-SVG-20010904/DTD/svg10.dtd">
<svg version="1.0" xmlns="http://www.w3.org/2000/svg"
 width="107.000000pt" height="62.000000pt" viewBox="0 0 107.000000 62.000000"
 preserveAspectRatio="xMidYMid meet">
<metadata>
Created by potrace 1.10, written by Peter Selinger 2001-2011
</metadata>
<g transform="translate(0.000000,62.000000) scale(0.100000,-0.100000)"
fill="#E05840" stroke="none">
<path d="M163 484 c-37 -20 -43 -42 -43 -163 0 -90 8 -111 42 -111 13 0 25 14
37 42 l17 42 33 -47 c26 -38 37 -47 62 -47 44 0 179 29 211 46 35 18 38 18 38
-6 0 -12 9 -39 21 -62 l21 -41 103 6 c162 9 212 42 187 124 -21 67 -49 103
-80 103 -15 0 -33 -5 -40 -12 -9 -9 -16 -8 -29 4 -12 10 -45 17 -99 20 -73 4
-87 8 -135 40 -72 48 -138 68 -234 74 -61 3 -87 0 -112 -12z m32 -21 c-16 -9
-33 -21 -37 -27 -13 -18 -9 -171 4 -184 13 -13 5 -27 -11 -17 -7 4 -11 47 -11
110 0 103 0 104 28 118 15 8 34 15 42 16 8 0 2 -7 -15 -16z m196 -4 c83 -27
132 -57 125 -76 -3 -8 -7 -24 -7 -36 -1 -13 -4 -7 -8 13 -5 30 -13 39 -63 63
-31 16 -81 35 -110 42 -33 8 -44 13 -27 14 14 1 55 -8 90 -20z m-50 -15 c30
-9 73 -25 95 -36 38 -17 43 -24 49 -65 8 -58 0 -66 -90 -87 l-70 -16 -23 28
c-13 15 -31 37 -42 50 -27 33 -47 27 -72 -20 -26 -52 -31 -38 -21 62 7 66 11
76 33 87 34 17 76 16 141 -3z m327 -84 c36 0 62 -4 62 -10 0 -16 -147 -82
-173 -78 -19 3 -22 10 -25 52 l-3 49 38 -6 c21 -4 66 -7 101 -7z m181 -36 c12
-15 21 -34 21 -43 -1 -10 -7 -5 -16 12 -12 23 -20 27 -37 22 -12 -4 -40 -10
-62 -14 -40 -8 -145 -56 -145 -67 0 -3 8 -19 18 -36 17 -30 18 -30 83 -24 72
6 148 41 161 73 5 14 7 13 7 -8 1 -35 -26 -57 -85 -68 -47 -9 -132 -15 -164
-12 -16 1 -50 53 -50 75 0 14 204 115 232 116 9 0 26 -12 37 -26z m-579 -48
c25 -37 36 -45 68 -49 l37 -4 -42 -1 c-39 -2 -45 1 -69 38 -15 22 -31 40 -35
40 -5 0 -9 5 -9 10 0 22 21 8 50 -34z m240 11 c0 -32 -2 -34 -51 -45 -71 -17
-95 -14 -30 4 68 18 71 20 71 50 0 13 2 24 5 24 3 0 5 -15 5 -33z m337 -14 c7
-15 12 -27 10 -27 -1 -1 -22 -11 -47 -24 -58 -29 -148 -41 -161 -21 -5 8 -9
19 -9 25 0 14 85 54 118 54 15 0 34 5 42 10 24 15 34 12 47 -17z"/>
</g>
</svg>
