 <svg  version="1.0" xmlns="http://www.w3.org/2000/svg"  width="109.000000pt" height="103.000000pt" viewBox="0 0 109.000000 103.000000"  preserveAspectRatio="xMidYMid meet">  <g transform="translate(0.000000,103.000000) scale(0.100000,-0.100000)" fill="#E05840" stroke="none"> <path d="M417 926 c-113 -47 -170 -100 -221 -206 -11 -25 -26 -49 -33 -55 -18 -15 -33 -94 -40 -214 -6 -118 3 -162 58 -272 44 -88 47 -89 125 -29 126 97 257 148 497 194 65 13 123 28 129 34 6 6 7 19 3 29 -12 28 -5 103 15 161 13 42 15 62 8 90 -17 65 -20 99 -9 106 26 17 5 38 -91 89 -187 100 -321 122 -441 73z m246 -21 c31 -8 93 -33 137 -55 l81 -41 -35 -42 c-30 -37 -56 -99 -56 -134 0 -21 23 -15 77 22 l52 35 9 -34 c8 -26 5 -46 -9 -87 -10 -30 -18 -82 -19 -116 l0 -62 -37 -6 c-178 -29 -353 -79 -449 -128 -27 -14 -77 -46 -112 -71 -34 -25 -64 -46 -67 -46 -8 0 -46 80 -66 137 -17 51 -17 54 -1 60 181 63 282 121 325 186 70 107 81 143 51 185 -19 28 -50 28 -129 1 -50 -17 -183 -49 -202 -49 -12 0 10 56 39 99 91 137 242 190 411 146z m252 -151 c-12 -34 -36 -60 -77 -85 -16 -8 -17 -7 -8 16 13 33 71 105 86 105 9 0 8 -10 -1 -36z m-385 -74 c23 -43 -78 -184 -163 -227 -50 -25 -207 -93 -216 -93 -5 0 9 197 18 240 l7 35 79 7 c47 4 107 17 145 31 81 32 116 34 130 7z"/> <path d="M445 674 c-20 -20 -16 -53 8 -68 39 -24 79 44 41 71 -23 17 -29 16 -49 -3z"/> </g> </svg> 