<?xml version="1.0" standalone="no"?>
<!DOCTYPE svg PUBLIC "-//W3C//DTD SVG 20010904//EN"
 "http://www.w3.org/TR/2001/REC-SVG-20010904/DTD/svg10.dtd">
<svg version="1.0" xmlns="http://www.w3.org/2000/svg"
 width="83.000000pt" height="73.000000pt" viewBox="0 0 83.000000 73.000000"
 preserveAspectRatio="xMidYMid meet">
<metadata>
Created by potrace 1.10, written by Peter Selinger 2001-2011
</metadata>
<g transform="translate(0.000000,73.000000) scale(0.100000,-0.100000)"
fill="#E05840" stroke="none">
<path d="M305 626 c-111 -35 -158 -79 -200 -185 l-24 -62 22 -9 c12 -5 40 -14
63 -20 67 -16 78 -36 69 -124 -5 -58 -3 -81 9 -105 19 -37 62 -61 108 -61 49
0 280 68 299 88 53 58 72 251 32 327 -69 131 -234 197 -378 151z m230 -38 c51
-26 102 -74 124 -118 33 -65 33 -168 1 -250 -9 -22 -28 -30 -144 -63 -149 -42
-172 -44 -198 -20 -15 13 -18 32 -18 110 0 52 -5 103 -11 115 -14 27 -69 48
-124 48 -25 0 -45 5 -45 10 0 15 28 68 54 104 61 83 253 117 361 64z m-309
-209 c47 -17 54 -35 54 -137 0 -85 3 -98 22 -119 30 -32 66 -30 209 13 67 19
123 33 126 30 15 -15 -212 -79 -280 -80 -54 -1 -61 2 -83 29 -23 28 -24 35
-18 112 6 81 6 83 -23 112 -21 20 -44 31 -76 36 -26 4 -47 12 -47 17 0 10 79
1 116 -13z"/>
</g>
</svg>
