<?xml version="1.0" standalone="no"?>
<!DOCTYPE svg PUBLIC "-//W3C//DTD SVG 20010904//EN"
 "http://www.w3.org/TR/2001/REC-SVG-20010904/DTD/svg10.dtd">
<svg version="1.0" xmlns="http://www.w3.org/2000/svg"
 width="98.000000pt" height="80.000000pt" viewBox="0 0 98.000000 80.000000"
 preserveAspectRatio="xMidYMid meet">
<metadata>
Created by potrace 1.10, written by Peter Selinger 2001-2011
</metadata>
<g transform="translate(0.000000,80.000000) scale(0.100000,-0.100000)"
fill="#E05840" stroke="none">
<path d="M315 656 c-57 -10 -140 -51 -195 -95 l-25 -20 53 -53 c31 -32 52 -62
52 -76 0 -12 6 -22 13 -22 6 0 45 -10 85 -21 l72 -22 0 -37 c0 -41 -18 -62
-64 -77 -51 -16 -53 -34 -17 -108 26 -52 36 -65 49 -60 34 14 95 25 242 44
170 22 175 24 216 106 31 65 37 172 11 221 -36 70 -150 147 -248 168 -19 4
-28 14 -32 36 l-6 30 -73 -1 c-40 -1 -100 -7 -133 -13z m193 -27 c2 -13 -10
-17 -61 -22 -35 -3 -76 -11 -90 -18 -23 -11 -29 -9 -46 12 -11 13 -17 26 -15
28 6 7 126 19 169 17 28 -1 41 -6 43 -17z m-180 -88 c34 -43 77 -92 96 -109
33 -29 117 -62 156 -62 27 0 53 35 45 62 l-6 23 20 -24 c17 -18 21 -37 21 -87
l0 -64 -39 0 c-55 0 -102 18 -131 50 -66 73 -160 117 -217 101 -29 -8 -34 -5
-88 49 l-58 59 63 40 c35 23 66 41 70 41 4 0 35 -35 68 -79z m216 2 c66 -109
71 -119 53 -104 -23 18 -51 6 -44 -19 13 -50 -95 1 -158 74 -54 63 -52 74 12
86 91 18 106 14 137 -37z m72 21 c57 -23 131 -81 159 -122 36 -53 35 -149 -1
-218 -14 -27 -32 -55 -39 -63 -8 -8 -63 -19 -146 -27 -73 -8 -149 -19 -168
-24 -20 -5 -39 -10 -43 -10 -5 0 77 195 88 208 1 2 16 -6 32 -18 31 -23 160
-46 175 -30 5 4 9 39 10 78 1 75 -15 114 -56 133 -18 8 -58 62 -75 102 -6 12
23 8 64 -9z m-218 -189 c28 -20 52 -38 52 -40 0 -3 -20 -49 -44 -102 -24 -54
-47 -108 -50 -120 -11 -34 -25 -28 -46 19 -27 60 -25 75 9 83 45 10 75 49 74
95 -1 22 -4 44 -7 49 -3 4 -33 16 -66 25 -33 9 -60 19 -60 22 0 2 19 4 43 4
32 0 55 -9 95 -35z"/>
</g>
</svg>
