<?xml version="1.0" standalone="no"?>
<!DOCTYPE svg PUBLIC "-//W3C//DTD SVG 20010904//EN"
 "http://www.w3.org/TR/2001/REC-SVG-20010904/DTD/svg10.dtd">
<svg version="1.0" xmlns="http://www.w3.org/2000/svg"
 width="94.000000pt" height="74.000000pt" viewBox="0 0 94.000000 74.000000"
 preserveAspectRatio="xMidYMid meet">
<metadata>
Created by potrace 1.10, written by Peter Selinger 2001-2011
</metadata>
<g transform="translate(0.000000,74.000000) scale(0.100000,-0.100000)"
fill="#E05840" stroke="none">
<path d="M505 660 c-22 -4 -89 -15 -148 -24 -175 -27 -280 -51 -284 -63 -6
-17 43 -39 117 -53 36 -7 66 -14 68 -15 2 -2 -6 -21 -17 -44 -12 -22 -21 -42
-21 -43 0 -2 23 -1 51 1 125 8 221 -26 227 -83 7 -55 -59 -96 -154 -96 -45 0
-59 4 -73 22 l-18 21 -31 -46 c-18 -25 -32 -48 -32 -52 0 -3 9 -18 19 -33 11
-15 22 -43 25 -63 4 -20 15 -44 25 -53 18 -16 21 -16 68 13 78 48 166 85 323
135 80 25 151 50 159 55 14 9 24 89 23 186 -1 45 -9 74 -32 122 -40 81 -65 99
-143 108 -34 3 -73 8 -87 9 -14 2 -43 0 -65 -4z m208 -41 c58 -32 106 -160 92
-248 -4 -25 -8 -62 -9 -81 l-1 -34 -160 -51 c-88 -28 -200 -72 -250 -98 -49
-25 -90 -45 -92 -44 -1 2 0 35 4 74 l6 71 68 6 c112 11 177 77 149 150 -18 49
-85 75 -197 77 -35 1 -63 3 -63 5 0 2 5 15 12 29 13 28 24 27 90 -6 32 -16 44
-17 88 -8 30 6 50 16 50 24 0 8 -23 37 -50 66 -28 28 -48 54 -45 58 4 3 25 11
48 18 47 14 230 8 260 -8z m-336 -18 c-3 -13 3 -23 19 -32 14 -7 35 -27 49
-45 21 -27 22 -33 9 -38 -28 -11 -61 -6 -107 14 -25 11 -86 29 -137 39 -50 10
-93 21 -96 24 -3 3 16 9 43 12 26 4 84 15 128 25 44 10 84 18 89 19 4 0 6 -8
3 -18z m-108 -454 c-1 -72 -2 -78 -11 -47 -5 19 -14 42 -19 50 -20 33 -21 41
-5 65 26 40 36 21 35 -68z"/>
<path d="M695 365 c-63 -35 -103 -71 -92 -81 3 -4 33 12 67 34 33 23 69 44 80
47 19 6 29 35 13 35 -5 0 -35 -16 -68 -35z"/>
</g>
</svg>
